<?xml version="1.0" encoding="UTF-8"?>
<svg id="Camada_2" data-name="Camada 2" xmlns="http://www.w3.org/2000/svg" viewBox="0 0 360.88 145.12">
  <defs>
    <style>
      .cls-1 {
        fill: #ccc;
      }

      .cls-1, .cls-2, .cls-3, .cls-4 {
        stroke-width: 0px;
      }

      .cls-2 {
        fill: #fff;
      }

      .cls-3 {
        fill: #eee;
      }

      .cls-4 {
        fill: #900;
      }
    </style>
  </defs>
  <g id="Camada_2-2" data-name="Camada 2">
    <g>
      <g>
        <path class="cls-1" d="m236.82,118.88c-9.72,0-16.69-2.54-20.91-7.63-4.22-5.09-5.47-12.53-3.75-22.34l6.81-38.15c1.72-9.81,5.06-16.8,10.02-20.98,4.95-4.18,12.28-6.27,22-6.27h84.47c9.72,0,16.69,2.54,20.91,7.63,4.22,5.09,5.47,12.54,3.75,22.34l-2.04,11.72h-36.79l1.09-5.86c.36-2.36.16-4.02-.61-4.97s-2.34-1.43-4.7-1.43h-54.23c-2.36,0-4.07.43-5.11,1.29-1.05.86-1.75,2.48-2.11,4.84l-4.36,23.98c-.36,2.36-.16,4.02.61,4.97.77.95,2.34,1.43,4.7,1.43h54.23c2.36,0,4.06-.43,5.11-1.3,1.04-.86,1.75-2.47,2.11-4.84l1.23-6.95h36.79l-2.72,15.26c-1.73,9.81-5.07,16.8-10.01,20.98-4.95,4.18-12.29,6.27-22,6.27h-84.47Z"/>
        <g>
          <path class="cls-2" d="m87.92,123.47L109.43,2h110.84c9.25,0,15.99,2.42,20.03,7.2,4.13,4.89,5.4,12.21,3.77,21.75l-2.13,12.51c-1.58,9.13-4.63,15.7-9.05,19.54-3.81,3.32-9.34,5.29-16.48,5.9l13.72,20.67.63.8,20.37,30.23h-47.56l-13.94-21.43h0l-.9-1.39-5.39-8.29h.08l-11.37-17.74h-33.58l-3.7,20.6-.36,2.35-5.16,28.75h-41.33Z"/>
          <path class="cls-4" d="m220.27,4c17.57,0,24.85,8.87,21.83,26.62l-2.13,12.51c-1.51,8.7-4.31,14.82-8.39,18.37-4.08,3.55-10.34,5.42-18.77,5.59l16.2,24.41h.09l18.27,27.11h-42.71l-13.94-21.43h0l-.3-.47-3.39-5.21h.05l-13.93-21.74h-36.34l-4.42,24.6h.06l-4.87,27.11h-37.27l4.8-27.11h0L111.11,4h109.16m0-4h-112.51l-.58,3.3-15.42,87.06h0l-.59,3.3-4.8,27.11-.83,4.7h45.39l.59-3.29,4.87-27.11.85-4.71h-.06l2.98-16.6h30.81l8.81,13.74h-.11l4.02,6.18,3.39,5.21.28.44,1.18,1.84h.02l12.76,19.61,1.18,1.82h52.4l-4.2-6.24-18.27-27.11-1.19-1.76h-.08l-11.28-16.99c6.01-.93,10.81-2.93,14.33-5.99,4.84-4.21,8.01-10.98,9.7-20.71l2.13-12.53c1.73-10.16.31-18.02-4.22-23.38-4.43-5.25-11.69-7.91-21.56-7.91h0Z"/>
        </g>
      </g>
      <path class="cls-4" d="m204.3,34.35l-1.07,5.86c-.36,1.95-.93,3.28-1.73,3.99-.8.71-2.18,1.07-4.13,1.07h-56.31l2.8-15.97h56.04c1.95,0,3.26.35,3.93,1.07s.82,2.04.47,3.99Z"/>
      <path class="cls-4" d="m117.41,88.9l-1.1,6.13c-.1.61-.05,1.01.14,1.22.19.21.59.31,1.2.31h14.56l-1.63,9.2h-20.55c-5.52,0-7.79-2.75-6.8-8.24l1.53-8.62h-9.1l1.58-9.01h9.1l3.31-5.75h10.35l-1.01,5.75h16.14l-1.58,9.01h-16.14Z"/>
      <g>
        <g>
          <path class="cls-3" d="m38.14,79.9c6.32,0,8.92,3.16,7.81,9.48l-2.92,16.38h-10.73l-.34-2.16c-1.25.93-2.4,1.52-3.47,1.77-1.07.26-2.67.38-4.81.38H5.53c-1.98,0-3.47-.59-4.45-1.77-.99-1.18-1.29-2.78-.91-4.79l.48-2.59c.73-3.93,3.03-5.89,6.9-5.89h25.53l.24-1.44c.13-.7.08-1.18-.14-1.44-.22-.26-.69-.38-1.39-.38h-14.75c-.61,0-1.02.1-1.25.31-.22.21-.4.62-.53,1.22l-.1.53H2.99l.34-2.06c.45-2.78,1.36-4.73,2.73-5.87,1.37-1.13,3.45-1.7,6.23-1.7h25.87Zm-9.29,19.26c.93,0,1.66-.26,2.2-.77l.77-.67.34-1.92H14.58c-.51,0-.85.08-1.03.24-.18.16-.31.5-.41,1.01l-.14.86c-.06.51-.02.85.12,1.01.14.16.47.24.98.24h14.75Z"/>
          <path class="cls-3" d="m94.95,79.9l-4.6,25.87h-10.73l-.34-2.54c-1.41,1.05-2.67,1.74-3.81,2.06-1.13.32-2.79.48-4.96.48h-14.66c-6.39,0-9-3.19-7.86-9.58l2.87-16.29h12.65l-2.59,14.56c-.13.7-.08,1.18.14,1.44.22.26.69.38,1.39.38h13.79c1.09,0,1.95-.26,2.59-.77l.77-.62,2.68-14.99h12.65Z"/>
          <path class="cls-3" d="m142.56,105.76c-6.32,0-8.94-3.19-7.86-9.58l1.34-7.66c.54-3.19,1.57-5.43,3.09-6.71,1.52-1.28,3.87-1.92,7.06-1.92h26.34c6.32,0,8.94,3.19,7.86,9.58l-1.34,7.66c-.54,3.19-1.57,5.43-3.09,6.71-1.52,1.28-3.87,1.92-7.06,1.92h-26.34Zm6.56-9.2h15.61c.7,0,1.2-.13,1.48-.38.29-.26.49-.73.62-1.44l.67-3.83c.13-.7.08-1.18-.14-1.44-.22-.26-.69-.38-1.39-.38h-15.61c-.7,0-1.2.13-1.48.38-.29.26-.5.73-.62,1.44l-.67,3.83c-.13.7-.08,1.18.14,1.44.22.26.69.38,1.39.38Z"/>
        </g>
        <g>
          <path class="cls-3" d="m227.64,123.84c3.97,0,5.62,2.01,4.93,6.02l-.85,4.87c-.34,2.03-1.01,3.46-1.99,4.29s-2.49,1.25-4.51,1.25h-10.03c-1.22,0-2.13-.07-2.75-.2s-1.2-.42-1.75-.87l-1.03,5.93h-8.03l3.77-21.28h6.81l.21,1.61c.87-.69,1.65-1.13,2.34-1.32.69-.19,1.72-.29,3.1-.29h9.79Zm-3.25,6.99c.08-.45.05-.75-.09-.91-.14-.16-.44-.24-.88-.24h-9.09c-.67,0-1.21.16-1.61.49l-.49.39-.52,2.98.33.4c.26.32.76.49,1.49.49h9.09c.45,0,.76-.08.94-.24.18-.16.31-.47.39-.91l.43-2.43Z"/>
          <path class="cls-3" d="m257.44,123.84c2.01,0,3.42.49,4.23,1.47.81.98,1.04,2.5.7,4.54l-.55,3.16h-19.94l-.12.73c-.08.45-.05.75.09.91.14.16.44.24.88.24h10.09c.38,0,.65-.07.79-.2s.25-.39.33-.78l.03-.15h7.72l-.3,1.67c-.32,1.76-.91,3-1.76,3.72-.85.72-2.15,1.08-3.89,1.08h-17.15c-3.97,0-5.61-2.01-4.93-6.02l.85-4.87c.34-2.03,1.01-3.46,1.99-4.29.98-.83,2.49-1.25,4.52-1.25h16.42Zm-14.9,5.47l-.09.49h12.22l.09-.49c.08-.45.05-.75-.09-.91-.14-.16-.44-.24-.88-.24h-9.91c-.45,0-.76.08-.94.24s-.31.47-.4.91Z"/>
          <path class="cls-3" d="m286.56,123.84c3.99,0,5.66,2.03,4.99,6.08l-.21,1.31h-7.72l.06-.39c.06-.45.03-.75-.11-.91-.13-.16-.42-.24-.87-.24h-9.3c-.45,0-.76.08-.94.24-.18.16-.31.47-.4.91l-.43,2.43c-.08.45-.05.75.09.91.14.16.44.24.88.24h9.3c.45,0,.76-.08.94-.24.18-.16.31-.47.4-.91l.09-.52h7.72l-.37,2.04c-.36,2.05-1.02,3.47-1.98,4.27-.95.8-2.44,1.2-4.47,1.2h-7.36l-.27.55h3.1c1.18,0,1.66.59,1.46,1.76l-.15.91c-.1.61-.3,1.03-.59,1.28-.29.24-.75.36-1.35.36h-8.09l.36-2.01h5.69c.14,0,.22-.07.24-.21l.03-.12c.02-.14-.04-.21-.18-.21h-3.86l.18-.97.64-1.34h-5.66c-4.01,0-5.67-2.03-4.99-6.08l.85-4.86c.34-2.03,1-3.45,1.96-4.26s2.46-1.22,4.49-1.22h15.81Z"/>
          <path class="cls-3" d="m316.42,123.84c4.01,0,5.67,2.01,4.96,6.02l-1.85,10.4h-6.81l-.21-1.37c-.79.59-1.53.96-2.2,1.12-.68.16-1.7.24-3.06.24h-11.52c-1.26,0-2.2-.38-2.83-1.12-.63-.75-.82-1.76-.58-3.04l.3-1.64c.47-2.49,1.93-3.74,4.38-3.74h16.21l.15-.91c.08-.45.05-.75-.09-.91s-.44-.24-.88-.24h-9.36c-.38,0-.65.07-.79.2-.14.13-.25.39-.33.78l-.06.33h-7.72l.21-1.31c.28-1.76.86-3,1.73-3.72.87-.72,2.19-1.08,3.95-1.08h16.42Zm-5.9,12.22c.59,0,1.05-.16,1.4-.49l.49-.42.21-1.22h-11.16c-.32,0-.54.05-.65.15s-.2.31-.26.64l-.09.55c-.04.32-.02.54.08.64.09.1.3.15.62.15h9.36Z"/>
          <path class="cls-3" d="m322.23,136l.24-1.34h7.72l-.15.85c-.04.26-.03.44.05.53s.25.14.53.14h10.58c.28,0,.48-.05.58-.14s.16-.27.18-.53l.06-.46c.04-.26.02-.44-.06-.53-.08-.09-.25-.15-.52-.17l-14.32-.61c-1.26-.04-2.2-.43-2.83-1.16-.63-.73-.84-1.72-.64-2.98l.33-1.95c.43-2.55,1.94-3.83,4.53-3.83h18.91c1.24,0,2.17.39,2.81,1.17.64.78.85,1.81.62,3.09l-.18,1.09h-7.72l.09-.61c.04-.26.02-.44-.05-.53-.07-.09-.25-.14-.53-.14h-9.85c-.28,0-.48.04-.58.14-.1.09-.16.27-.18.53l-.03.27c-.04.26-.02.44.06.53.08.09.25.15.52.17l14.32.61c1.26.04,2.2.42,2.83,1.16.63.73.84,1.72.64,2.98l-.37,2.13c-.42,2.55-1.94,3.83-4.53,3.83h-19.64c-1.26,0-2.2-.39-2.83-1.17-.63-.78-.83-1.81-.61-3.09Z"/>
        </g>
      </g>
    </g>
  </g>
</svg>